<?xml version="1.0" encoding="utf-8"?>
<!-- Generator: Adobe Illustrator 17.1.0, SVG Export Plug-In . SVG Version: 6.00 Build 0)  -->
<!DOCTYPE svg PUBLIC "-//W3C//DTD SVG 1.1//EN" "http://www.w3.org/Graphics/SVG/1.1/DTD/svg11.dtd">
<svg version="1.1" xmlns="http://www.w3.org/2000/svg" xmlns:xlink="http://www.w3.org/1999/xlink" x="0px" y="0px"
	 viewBox="0 0 780 792" enable-background="new 0 0 780 792" xml:space="preserve">
<g id="Layer_1">
	
		<rect x="257.7" y="295" fill="#0DA93C" stroke="#000000" stroke-linecap="round" stroke-linejoin="round" stroke-miterlimit="10" width="32.3" height="43.5"/>
	
		<rect x="320.5" y="295.2" fill="#96BE54" stroke="#000000" stroke-linecap="round" stroke-linejoin="round" stroke-miterlimit="10" width="26.3" height="41"/>
	
		<rect x="347.8" y="295.2" fill="#96BE54" stroke="#000000" stroke-linecap="round" stroke-linejoin="round" stroke-miterlimit="10" width="40" height="41"/>
	<polygon fill="#96BE54" stroke="#000000" stroke-linecap="round" stroke-linejoin="round" stroke-miterlimit="10" points="
		415.1,338.7 403.6,338.7 399.5,336.3 387.8,336.3 387.6,295.2 415.1,295.2 	"/>
	
		<rect x="415.1" y="276.6" fill="#96BE54" stroke="#000000" stroke-linecap="round" stroke-linejoin="round" stroke-miterlimit="10" width="22.3" height="62.1"/>
	
		<rect x="437.5" y="276.6" fill="#96BE54" stroke="#000000" stroke-linecap="round" stroke-linejoin="round" stroke-miterlimit="10" width="14.6" height="26.5"/>
	<polygon fill="#96BE54" stroke="#000000" stroke-linecap="round" stroke-linejoin="round" stroke-miterlimit="10" points="
		443.6,338.7 437.5,338.7 437.5,303.1 452.1,303.1 452.1,329.4 	"/>
	<polygon fill="#FF7553" stroke="#000000" stroke-linecap="round" stroke-linejoin="round" stroke-miterlimit="10" points="
		638.5,322.4 591.5,374 630,407.5 675,358 663.3,346 743.5,265 708.5,230 718.5,218 673.5,175 583,266 	"/>
	<polygon fill="#FF7553" stroke="#000000" stroke-linecap="round" stroke-linejoin="round" stroke-miterlimit="10" points="
		512.5,540.5 570.5,476.5 553.5,458.5 570.5,439.5 549.5,418.5 570.5,396 607,432.5 617.5,431.5 617.5,453 687,521 590,616.5 	"/>
	<polygon fill="#FF7553" stroke="#000000" stroke-linecap="round" stroke-linejoin="round" stroke-miterlimit="10" points="
		285,407.5 285,421.5 301,439.5 301,504 437.4,504 437.4,407.5 	"/>
	<polygon fill="#0DA93C" stroke="#000000" stroke-linecap="round" stroke-linejoin="round" stroke-miterlimit="10" points="
		319.5,336.5 294.7,336.5 292.7,338.5 290,338.5 290,295.2 319.5,295.2 	"/>
	<polyline fill="#9DABEB" stroke="#000000" stroke-linecap="round" stroke-linejoin="round" stroke-miterlimit="10" points="
		512.5,499.5 518.5,481.3 540.3,482.3 552.6,496.3 532.8,518.1 512.5,499.5 	"/>
	<path fill="#196B36" stroke="#000000" stroke-linecap="round" stroke-linejoin="round" stroke-miterlimit="10" d="M552.6,496.3"/>
	<polygon fill="#008CA3" stroke="#000000" stroke-linecap="round" stroke-linejoin="round" stroke-miterlimit="10" points="
		607,433.3 623.2,416.6 584.7,381.1 570.2,396.6 	"/>
	<polygon fill="#008CA3" stroke="#000000" stroke-linecap="round" stroke-linejoin="round" stroke-miterlimit="10" points="
		541.8,426 541.8,447.5 553.2,458.8 570.5,439.5 549.5,418.5 	"/>
	<polygon fill="#657BCB" stroke="#000000" stroke-linecap="round" stroke-linejoin="round" stroke-miterlimit="10" points="
		275.3,365.8 277.6,364.3 277.6,356.3 301,356.3 301,401.9 275.3,401.9 	"/>
	
		<rect x="301" y="356.3" fill="#657BCB" stroke="#000000" stroke-linecap="round" stroke-linejoin="round" stroke-miterlimit="10" width="14.5" height="18.9"/>
	<polygon fill="#657BCB" stroke="#000000" stroke-linecap="round" stroke-linejoin="round" stroke-miterlimit="10" points="
		316.1,356.3 316.1,375.8 301.8,375.8 301.8,401.9 346.3,401.9 346.3,358.8 321.9,358.8 	"/>
	
		<rect x="175.2" y="359.8" fill="#657BCB" stroke="#000000" stroke-linecap="round" stroke-linejoin="round" stroke-miterlimit="10" width="17.4" height="61.3"/>
	<polygon fill="#9870BB" stroke="#000000" stroke-linecap="round" stroke-linejoin="round" stroke-miterlimit="10" points="
		467.7,373 467.7,401.9 494,401.9 	"/>
	<polygon fill="#9870BB" stroke="#000000" stroke-linecap="round" stroke-linejoin="round" stroke-miterlimit="10" points="
		413.7,359 396.3,376.7 413.7,376.7 	"/>
	
		<rect x="413.7" y="359" fill="#9870BB" stroke="#000000" stroke-linecap="round" stroke-linejoin="round" stroke-miterlimit="10" width="14.7" height="17.7"/>
	
		<rect x="396.3" y="376.7" fill="#9870BB" stroke="#000000" stroke-linecap="round" stroke-linejoin="round" stroke-miterlimit="10" width="32" height="25.2"/>
	
		<rect x="441.7" y="422" fill="#9870BB" stroke="#000000" stroke-linecap="round" stroke-linejoin="round" stroke-miterlimit="10" width="26" height="21.3"/>
	
		<rect x="467.7" y="422" fill="#9870BB" stroke="#000000" stroke-linecap="round" stroke-linejoin="round" stroke-miterlimit="10" width="16" height="21.3"/>
	<polygon fill="#9870BB" stroke="#000000" stroke-linecap="round" stroke-linejoin="round" stroke-miterlimit="10" points="
		491.4,444.7 483.7,444.7 483.7,422 499.1,422 499.1,438.6 	"/>
	<polygon fill="#9870BB" stroke="#000000" stroke-linecap="round" stroke-linejoin="round" stroke-miterlimit="10" points="
		428.3,359 456.7,359 467.7,373 467.7,422 441.7,422 441.7,401.9 428.3,401.9 	"/>
	<polygon fill="#FF9D0C" stroke="#000000" stroke-linecap="round" stroke-linejoin="round" stroke-miterlimit="10" points="
		496.5,379.4 513.9,363.1 521.9,372.4 505.4,388.8 	"/>
	<polygon fill="#FF9D0C" stroke="#000000" stroke-linecap="round" stroke-linejoin="round" stroke-miterlimit="10" points="
		483.8,339.6 483.8,347.6 495,361.1 514.5,344.5 510.5,339.6 	"/>
	<polygon fill="#FF9D0C" stroke="#000000" stroke-linecap="round" stroke-linejoin="round" stroke-miterlimit="10" points="
		486.8,368.6 504.1,353.5 513.4,363.5 496.5,379.4 	"/>
	<polygon fill="#FF9D0C" stroke="#000000" stroke-linecap="round" stroke-linejoin="round" stroke-miterlimit="10" points="
		483.8,339.6 476.5,339.6 471.6,344.1 471.6,351.4 486.6,368.5 495,361.1 483.8,347.6 	"/>
	<polygon fill="#FF9D0C" stroke="#000000" stroke-linecap="round" stroke-linejoin="round" stroke-miterlimit="10" points="
		509.9,338.8 517.8,331.4 523.4,331.4 529.6,324.4 546.7,341.5 533.8,354.4 536.5,357.3 521.7,372.2 503.8,353.5 514.5,344.5 	"/>
	
		<rect x="346.8" y="390" fill="#657BCB" stroke="#000000" stroke-linecap="round" stroke-linejoin="round" stroke-miterlimit="10" width="25.3" height="11.9"/>
	
		<rect x="346.8" y="363.1" fill="#657BCB" stroke="#000000" stroke-linecap="round" stroke-linejoin="round" stroke-miterlimit="10" width="10.6" height="26.5"/>
	<polygon fill="#657BCB" stroke="#000000" stroke-linecap="round" stroke-linejoin="round" stroke-miterlimit="10" points="
		372,389.6 357.3,389.6 357.3,363.1 372,379.1 	"/>
	<polygon fill="#9870BB" stroke="#000000" stroke-linecap="round" stroke-linejoin="round" stroke-miterlimit="10" points="
		467.7,401.9 467.7,422 499.1,422 499.1,407.5 494,401.9 	"/>
	
		<rect x="441.7" y="467.3" fill="#9DABEB" stroke="#000000" stroke-linecap="round" stroke-linejoin="round" stroke-miterlimit="10" width="22.3" height="23.7"/>
	<polygon fill="#9DABEB" stroke="#000000" stroke-linecap="round" stroke-linejoin="round" stroke-miterlimit="10" points="
		464,467.3 483.3,467.3 492.2,479.2 483.8,488.3 464,488.3 	"/>
	<polygon fill="#9DABEB" stroke="#000000" stroke-linecap="round" stroke-linejoin="round" stroke-miterlimit="10" points="
		441.7,491 464,491 464,488.3 483.8,488.3 492.2,479.2 498.8,487.3 483.7,522.2 479.8,517.3 441.7,517.1 	"/>
	
		<rect x="488.7" y="277.5" fill="#FF9D0C" stroke="#000000" stroke-linecap="round" stroke-linejoin="round" stroke-miterlimit="10" width="17.7" height="12.4"/>
	
		<rect x="488.7" y="289.9" fill="#FF9E0C" stroke="#000000" stroke-linecap="round" stroke-linejoin="round" stroke-miterlimit="10" width="17.7" height="15"/>
	<polygon fill="#FF9D0C" stroke="#000000" stroke-linecap="round" stroke-linejoin="round" stroke-miterlimit="10" points="
		488.8,319.7 475,319.7 470.8,316 470.8,277.5 488.8,277.5 	"/>
	<polygon fill="#FF9D0C" stroke="#000000" stroke-linecap="round" stroke-linejoin="round" stroke-miterlimit="10" points="
		506.3,295.8 525.5,295.8 525.5,303.1 512.3,315.3 506.3,315.3 	"/>
	<polygon fill="#FF9D0C" stroke="#000000" stroke-linecap="round" stroke-linejoin="round" stroke-miterlimit="10" points="
		488.7,304.8 506.3,304.8 506.3,316.3 503,319.7 488.7,319.7 	"/>
	<polygon fill="#FF9D0C" stroke="#000000" stroke-linecap="round" stroke-linejoin="round" stroke-miterlimit="10" points="
		551.2,320.3 541.2,330.3 531,320.2 537.7,313.3 544.6,313.3 	"/>
	<polygon fill="#FF9D0C" stroke="#000000" stroke-linecap="round" stroke-linejoin="round" stroke-miterlimit="10" points="
		559.8,329.3 550.1,339.6 541.5,330.3 551.3,320.6 553.2,322.4 553.3,322.5 	"/>
	<polygon fill="#FF9E0C" stroke="#000000" stroke-linecap="round" stroke-linejoin="round" stroke-miterlimit="10" points="
		570.4,340.5 560.2,329.8 550.7,339.8 550.7,340.1 554.1,343.3 551.8,345.5 559.5,352.3 570.4,340.5 	"/>
	<polygon fill="#FF9D0C" stroke="#000000" stroke-linecap="round" stroke-linejoin="round" stroke-miterlimit="10" points="
		570.4,340.5 570.4,340.5 559.5,352.3 551.8,345.5 540.7,356.8 563.5,380.5 567.5,376.5 567,370.3 577.8,360.5 577.8,348.5 
		576.3,346.8 	"/>
	
		<rect x="511.3" y="276.6" fill="#FB7EB8" stroke="#000000" stroke-linecap="round" stroke-linejoin="round" stroke-miterlimit="10" width="19.8" height="14.6"/>
	
		<rect x="533.8" y="276.6" fill="#FF1300" stroke="#000000" stroke-linecap="round" stroke-linejoin="round" stroke-miterlimit="10" width="13.5" height="14.6"/>
	
		<rect x="547.3" y="276.6" fill="#A741AA" stroke="#000000" stroke-linecap="round" stroke-linejoin="round" stroke-miterlimit="10" width="10" height="14.6"/>
	<polygon fill="#FB7EB8" stroke="#000000" stroke-linecap="round" stroke-linejoin="round" stroke-miterlimit="10" points="
		557.3,276.6 568.5,276.5 576,267.5 582.3,274.3 575.2,280.6 575,291.3 557.3,291.3 	"/>
	<polygon fill="#FB7EB8" stroke="#000000" stroke-linecap="round" stroke-linejoin="round" stroke-miterlimit="10" points="
		575,291.3 575.2,280.6 582.3,274.3 596.1,287.9 587,297.4 580.9,298 	"/>
	<polygon fill="#FB7EB8" stroke="#000000" stroke-linecap="round" stroke-linejoin="round" stroke-miterlimit="10" points="
		596.5,306.6 605.7,297.8 596.1,287.9 587,297.4 	"/>
	<polygon fill="#FB7EB8" stroke="#000000" stroke-linecap="round" stroke-linejoin="round" stroke-miterlimit="10" points="
		601.9,311.8 610,312.3 615.2,306.7 605.7,297.8 596.5,306.6 	"/>
	<polyline fill="#FF9D0C" stroke="#000000" stroke-linecap="round" stroke-linejoin="round" stroke-miterlimit="10" points="
		505.4,388.8 536.5,357.3 538.3,359 540.7,356.8 564,380 538,406.2 521.9,407.5 505,388.8 	"/>
	<polyline fill="none" stroke="#000000" stroke-linecap="round" stroke-linejoin="round" stroke-miterlimit="10" points="
		570.4,340.5 570.4,340.5 560.2,329.8 559.8,329.3 553.3,322.5 553.2,322.4 551.2,320.3 544.6,313.3 543.1,311.8 	"/>
	
		<circle fill="#FF3000" stroke="#000000" stroke-linecap="round" stroke-linejoin="round" stroke-miterlimit="10" cx="385" cy="388.8" r="5.6"/>
</g>
<g id="Layer_2">
	
		<rect x="6.5" y="233" fill="#FF7553" stroke="#000000" stroke-linecap="round" stroke-linejoin="round" stroke-miterlimit="10" width="125.5" height="216.5"/>
	<polygon fill="#657BCB" stroke="#000000" stroke-linecap="round" stroke-linejoin="round" stroke-miterlimit="10" points="
		146.5,373 158.5,359.3 171.8,359.3 171.8,422.5 196.8,422.5 196.8,448.3 146.5,448.3 	"/>
	
		<rect x="175.5" y="359.8" fill="#FD1824" stroke="#000000" stroke-linecap="round" stroke-linejoin="round" stroke-miterlimit="10" width="14" height="14.8"/>
	
		<rect x="192.6" y="359.9" fill="#657BCB" stroke="#000000" stroke-linecap="round" stroke-linejoin="round" stroke-miterlimit="10" width="15.3" height="61.2"/>
	
		<rect x="207.9" y="359.9" fill="#657BCB" stroke="#000000" stroke-linecap="round" stroke-linejoin="round" stroke-miterlimit="10" width="15.3" height="61.2"/>
	
		<rect x="238.8" y="357.3" fill="#657BCB" stroke="#000000" stroke-linecap="round" stroke-linejoin="round" stroke-miterlimit="10" width="16.9" height="63.8"/>
	<polygon fill="#657BCB" stroke="#000000" stroke-linecap="round" stroke-linejoin="round" stroke-miterlimit="10" points="
		238.6,421 221.7,421 221.7,359.9 226,357.3 238.6,357.3 	"/>
	
		<rect x="255.7" y="357.3" fill="#657BCB" stroke="#000000" stroke-linecap="round" stroke-linejoin="round" stroke-miterlimit="10" width="15.6" height="63.8"/>
	<polygon fill="#0DA93C" stroke="#000000" stroke-linecap="round" stroke-linejoin="round" stroke-miterlimit="10" points="
		145.5,247 172,247 172,304.6 157.3,304.6 157.3,331.7 145.5,320 	"/>
	
		<rect x="171.6" y="247" fill="#0DA93C" stroke="#000000" stroke-linecap="round" stroke-linejoin="round" stroke-miterlimit="10" width="24.7" height="28.8"/>
	
		<rect x="157.7" y="304.6" fill="#0DA93C" stroke="#000000" stroke-linecap="round" stroke-linejoin="round" stroke-miterlimit="10" width="14.7" height="27.1"/>
	
		<rect x="196.3" y="247" fill="#0DA93C" stroke="#000000" stroke-linecap="round" stroke-linejoin="round" stroke-miterlimit="10" width="16.9" height="28.8"/>
	<polygon fill="#0DA93C" stroke="#000000" stroke-linecap="round" stroke-linejoin="round" stroke-miterlimit="10" points="
		196.3,335.6 186.3,335.6 182.8,331.7 171.6,331.7 171.6,276 196.3,276 	"/>
	
		<rect x="197" y="276.5" fill="#0DA93C" stroke="#000000" stroke-linecap="round" stroke-linejoin="round" stroke-miterlimit="10" width="24.3" height="58.9"/>
	<polygon fill="#0DA93C" stroke="#000000" stroke-linecap="round" stroke-linejoin="round" stroke-miterlimit="10" points="
		256.7,338.5 224.4,338.5 221.7,335.6 221.7,276.6 240,276.6 253.7,276.6 253.5,295.4 256.7,295.4 	"/>
	<polygon fill="#9DABEB" stroke="#000000" stroke-linecap="round" stroke-linejoin="round" stroke-miterlimit="10" points="
		501.8,529.3 512.5,499.5 532.8,518.1 512.5,540.5 	"/>
</g>
</svg>
